<?xml version="1.0" encoding="UTF-8" standalone="no"?>
<!DOCTYPE svg PUBLIC "-//W3C//DTD SVG 1.1//EN"
 "http://www.w3.org/Graphics/SVG/1.1/DTD/svg11.dtd">
<!-- Generated by graphviz version 2.38.0 (20140413.2041)
 -->
<!-- Title: G Pages: 1 -->
<svg width="238pt" height="203pt"
 viewBox="0.00 0.00 238.22 203.00" xmlns="http://www.w3.org/2000/svg" xmlns:xlink="http://www.w3.org/1999/xlink">
<g id="graph0" class="graph" transform="scale(1 1) rotate(0) translate(4 199)">
<title>G</title>
<polygon fill="white" stroke="none" points="-4,4 -4,-199 234.219,-199 234.219,4 -4,4"/>
<g id="clust1" class="cluster"><title>cluster_Global</title>
<path fill="none" stroke="gray" d="M20,-8C20,-8 210.219,-8 210.219,-8 216.219,-8 222.219,-14 222.219,-20 222.219,-20 222.219,-175 222.219,-175 222.219,-181 216.219,-187 210.219,-187 210.219,-187 20,-187 20,-187 14,-187 8,-181 8,-175 8,-175 8,-20 8,-20 8,-14 14,-8 20,-8"/>
<text text-anchor="middle" x="115.11" y="-174.2" font-family="Times,serif" font-size="11.00" fill="gray">Global</text>
</g>
<!-- \\Product -->
<g id="node1" class="node"><title>\\Product</title>
<polygon fill="none" stroke="black" points="214.219,-160 160.219,-160 160.219,-124 214.219,-124 214.219,-160"/>
<text text-anchor="middle" x="187.219" y="-138.7" font-family="Times,serif" font-size="11.00">Product</text>
</g>
<!-- \\AgentProfile -->
<g id="node2" class="node"><title>\\AgentProfile</title>
<polygon fill="none" stroke="black" points="88.3292,-79 15.89,-79 15.89,-43 88.3292,-43 88.3292,-79"/>
<text text-anchor="middle" x="52.1096" y="-57.7" font-family="Times,serif" font-size="11.00">AgentProfile</text>
</g>
<!-- \\Vendor -->
<g id="node3" class="node"><title>\\Vendor</title>
<polygon fill="none" stroke="black" points="214.219,-106 160.219,-106 160.219,-70 214.219,-70 214.219,-106"/>
<text text-anchor="middle" x="187.219" y="-84.7" font-family="Times,serif" font-size="11.00">Vendor</text>
</g>
<!-- \\Vendor&#45;&gt;\\AgentProfile -->
<g id="edge1" class="edge"><title>\\Vendor&#45;&gt;\\AgentProfile</title>
<path fill="none" stroke="black" d="M159.921,-82.6657C142.421,-79.1159 118.973,-74.3597 98.5044,-70.2079"/>
<polygon fill="none" stroke="black" points="98.9246,-66.7219 88.4284,-68.1641 97.533,-73.5822 98.9246,-66.7219"/>
</g>
<!-- \\Charity -->
<g id="node4" class="node"><title>\\Charity</title>
<polygon fill="none" stroke="black" points="214.219,-52 160.219,-52 160.219,-16 214.219,-16 214.219,-52"/>
<text text-anchor="middle" x="187.219" y="-30.7" font-family="Times,serif" font-size="11.00">Charity</text>
</g>
<!-- \\Charity&#45;&gt;\\AgentProfile -->
<g id="edge2" class="edge"><title>\\Charity&#45;&gt;\\AgentProfile</title>
<path fill="none" stroke="black" d="M159.921,-39.3343C142.421,-42.8841 118.973,-47.6403 98.5044,-51.7921"/>
<polygon fill="none" stroke="black" points="97.533,-48.4178 88.4284,-53.8359 98.9246,-55.2781 97.533,-48.4178"/>
</g>
</g>
</svg>
